<svg xmlns="http://www.w3.org/2000/svg" xmlns:xlink="http://www.w3.org/1999/xlink" viewBox="0 0 2437.83 1080"><defs><style>.cls-1{fill:none;}.cls-2{isolation:isolate;}.cls-3{fill:#9bcbc9;}.cls-4{fill:#3d9a96;}.cls-5{opacity:0.7;fill:url(#linear-gradient);}.cls-13,.cls-14,.cls-5{mix-blend-mode:overlay;}.cls-6{fill:#fff;mix-blend-mode:soft-light;}.cls-7{fill:url(#linear-gradient-2);}.cls-8{fill:#e6dff5;}.cls-9{fill:url(#linear-gradient-3);}.cls-10{fill:url(#linear-gradient-4);}.cls-11{clip-path:url(#clip-path);}.cls-12{opacity:0.5;}.cls-13{fill:url(#linear-gradient-5);}.cls-14{fill:url(#linear-gradient-6);}</style><linearGradient id="linear-gradient" x1="958.76" y1="1044" x2="958.76" gradientUnits="userSpaceOnUse"><stop offset="0" stop-color="#fff" stop-opacity="0"/><stop offset="1" stop-color="#fff"/></linearGradient><linearGradient id="linear-gradient-2" x1="960.67" y1="1019" x2="960.67" y2="929.11" gradientUnits="userSpaceOnUse"><stop offset="0" stop-color="#b5a0e1"/><stop offset="1" stop-color="#9d80d7"/></linearGradient><linearGradient id="linear-gradient-3" x1="960.65" y1="933.61" x2="960.65" y2="851.91" xlink:href="#linear-gradient-2"/><linearGradient id="linear-gradient-4" x1="960.63" y1="856.1" x2="960.63" y2="783.16" xlink:href="#linear-gradient-2"/><clipPath id="clip-path" transform="translate(261.32)"><rect class="cls-1" x="0.26" y="1.04" width="1920" height="1078.96"/></clipPath><linearGradient id="linear-gradient-5" x1="1750.96" y1="989.51" x2="1750.96" y2="1.04" xlink:href="#linear-gradient"/><linearGradient id="linear-gradient-6" x1="3331.83" y1="989.51" x2="3331.83" y2="1.04" gradientTransform="matrix(-1, 0, 0, 1, 3496.07, 0)" xlink:href="#linear-gradient"/></defs><g class="cls-2"><g id="Layer_2" data-name="Layer 2"><g id="Layer_1-2" data-name="Layer 1"><rect class="cls-3" x="261.58" width="1920" height="1080"/><rect class="cls-4" x="261.32" y="0.25" width="1920" height="1079.75"/><path class="cls-5" d="M286.26,1000,620,.25,1304.71,0l326.55,1000s-8,44-672.5,44S286.26,1000,286.26,1000Z" transform="translate(261.32)"/><ellipse class="cls-6" cx="1220.08" cy="1000" rx="672.5" ry="44"/><path class="cls-7" d="M1311.72,929.11H609.62v77h.1a.51.51,0,0,0-.1.3c0,7,157.17,12.63,351,12.63s351.05-5.66,351.05-12.63a.6.6,0,0,0-.1-.3h.1Z" transform="translate(261.32)"/><ellipse class="cls-8" cx="1221.67" cy="929.11" rx="351.05" ry="12.63"/><path class="cls-9" d="M1269.05,851.91H652.24v70h.09a.58.58,0,0,0-.09.27c0,6.34,138.08,11.48,308.41,11.48s308.4-5.14,308.4-11.48a.56.56,0,0,0-.08-.27h.08Z" transform="translate(261.32)"/><ellipse class="cls-8" cx="1221.69" cy="851.91" rx="308.4" ry="11.48"/><path class="cls-10" d="M1227.58,783.16H693.68v62.45h.07a.55.55,0,0,0-.07.24c0,5.66,119.52,10.25,267,10.25s266.95-4.59,266.95-10.25a.55.55,0,0,0-.07-.24h.07Z" transform="translate(261.32)"/><ellipse class="cls-8" cx="1221.71" cy="783.16" rx="266.95" ry="10.25"/><g class="cls-11"><g class="cls-12"><path class="cls-13" d="M1325.4,961.67,1917.12,1.2,2176.51,1V961.67s-5.06,27.84-425.55,27.84S1325.4,961.67,1325.4,961.67Z" transform="translate(261.32)"/><ellipse class="cls-6" cx="2012.28" cy="961.67" rx="425.56" ry="27.84"/></g><g class="cls-12"><path class="cls-14" d="M589.79,961.67-1.93,1.2-261.32,1V961.67s5.06,27.84,425.56,27.84S589.79,961.67,589.79,961.67Z" transform="translate(261.32)"/><ellipse class="cls-6" cx="425.56" cy="961.67" rx="425.56" ry="27.84"/></g></g></g></g></g></svg>