<svg width="800" height="600" viewBox="0 0 800 600" xmlns="http://www.w3.org/2000/svg">
  <defs>
    <linearGradient id="skyGradient" x1="0%" y1="0%" x2="0%" y2="100%">
      <stop offset="0%" style="stop-color:#87CEEB;stop-opacity:1" />
      <stop offset="100%" style="stop-color:#E0F6FF;stop-opacity:1" />
    </linearGradient>
    <linearGradient id="groundGradient" x1="0%" y1="0%" x2="0%" y2="100%">
      <stop offset="0%" style="stop-color:#8FBC8F;stop-opacity:1" />
      <stop offset="100%" style="stop-color:#228B22;stop-opacity:1" />
    </linearGradient>
  </defs>
  
  <!-- Sky -->
  <rect width="800" height="400" fill="url(#skyGradient)" />
  
  <!-- Ground -->
  <rect y="400" width="800" height="200" fill="url(#groundGradient)" />
  
  <!-- Path -->
  <path d="M 50 500 Q 200 480, 400 450 T 750 420" 
        stroke="#D2691E" stroke-width="20" fill="none" 
        stroke-linecap="round" opacity="0.8"/>
  
  <!-- Village (left) -->
  <g id="village">
    <!-- House 1 -->
    <rect x="80" y="340" width="60" height="60" fill="#8B4513" />
    <polygon points="80,340 110,310 140,340" fill="#DC143C" />
    <rect x="95" y="360" width="15" height="15" fill="#FFD700" />
    <rect x="115" y="360" width="15" height="15" fill="#FFD700" />
    
    <!-- House 2 -->
    <rect x="150" y="350" width="50" height="50" fill="#A0522D" />
    <polygon points="150,350 175,325 200,350" fill="#B22222" />
    <rect x="165" y="365" width="12" height="12" fill="#FFD700" />
  </g>
  
  <!-- Forest (middle) -->
  <g id="forest">
    <!-- Trees -->
    <ellipse cx="350" cy="380" rx="25" ry="40" fill="#228B22" />
    <rect x="345" y="380" width="10" height="30" fill="#8B4513" />
    
    <ellipse cx="400" cy="370" rx="30" ry="45" fill="#2E8B57" />
    <rect x="395" y="370" width="10" height="35" fill="#8B4513" />
    
    <ellipse cx="450" cy="375" rx="28" ry="42" fill="#228B22" />
    <rect x="445" y="375" width="10" height="32" fill="#8B4513" />
    
    <ellipse cx="380" cy="360" rx="22" ry="35" fill="#3CB371" />
    <rect x="376" y="360" width="8" height="25" fill="#8B4513" />
  </g>
  
  <!-- Castle (right) -->
  <g id="castle">
    <!-- Main structure -->
    <rect x="600" y="280" width="120" height="120" fill="#696969" />
    
    <!-- Towers -->
    <rect x="590" y="260" width="30" height="140" fill="#808080" />
    <rect x="700" y="260" width="30" height="140" fill="#808080" />
    
    <!-- Tower tops -->
    <polygon points="590,260 605,240 620,260" fill="#4169E1" />
    <polygon points="700,260 715,240 730,260" fill="#4169E1" />
    
    <!-- Gate -->
    <rect x="645" y="340" width="30" height="60" fill="#4B0082" />
    
    <!-- Windows -->
    <rect x="630" y="300" width="15" height="20" fill="#87CEEB" />
    <rectancelTextRequest x="675" y="300" width="15" height="20" fill="#87CEEB" />
    
    <!-- Flag -->
    <rect x="658" y="240" width="2" height="40" fill="#8B4513" />
    <polygon points="660,245 680,250 660,255" fill="#FFD700" />
  </g>
  
  <!-- Sun -->
  <circle cx="700" cy="100" r="40" fill="#FFD700" opacity="0.9"/>
  
  <!-- Clouds -->
  <ellipse cx="150" cy="80" rx="40" ry="20" fill="white" opacity="0.8"/>
  <ellipse cx="180" cy="85" rx="35" ry="18" fill="white" opacity="0.8"/>
  
  <ellipse cx="500" cy="120" rx="45" ry="22" fill="white" opacity="0.8"/>
  <ellipse cx="530" cy="125" rx="38" ry="20" fill="white" opacity="0.8"/>
</svg>